<?xml version="1.0" encoding="UTF-8"?> <!-- Generator: Adobe Illustrator 23.0.2, SVG Export Plug-In . SVG Version: 6.00 Build 0) --> <svg xmlns="http://www.w3.org/2000/svg" xmlns:xlink="http://www.w3.org/1999/xlink" id="Layer_1" x="0px" y="0px" viewBox="0 0 257.4 50" style="enable-background:new 0 0 257.4 50;" xml:space="preserve"> <style type="text/css"> .st0{fill:#003DA6;} .st1{fill:#00A19B;} </style> <g> <path class="st0" d="M99.6,29.9c0,0,2.8,2.9,6.8,2.9c2.5,0,4.6-1.4,4.6-3.9c0-5.8-12.9-4.5-12.9-12.8c0-4.2,3.6-7.5,8.6-7.5 c5,0,7.6,2.7,7.6,2.7l-1.7,3.1c0,0-2.5-2.3-5.9-2.3c-2.8,0-4.8,1.8-4.8,3.9c0,5.5,12.9,4.1,12.9,12.7c0,4.1-3.2,7.5-8.5,7.5 c-5.7,0-8.9-3.5-8.9-3.5L99.6,29.9z"></path> <path class="st0" d="M120.2,9.1h9.8c4.9,0,8.4,3.3,8.4,8.4c0,5.1-3.5,8.5-8.4,8.5h-6v9.9h-3.7V9.1z M129.3,22.7 c3.2,0,5.2-2,5.2-5.2c0-3.2-2-5.1-5.1-5.1h-5.5v10.3H129.3z"></path> <path class="st0" d="M143.2,9.1h3.7v26.7h-3.7V9.1z"></path> <path class="st0" d="M154.2,9.1h3.7l11.9,17.4c1,1.4,2.2,3.9,2.2,3.9h0.1c0,0-0.3-2.4-0.3-3.9V9.1h3.7v26.7h-3.7L160,18.5 c-1-1.5-2.2-3.9-2.2-3.9h-0.1c0,0,0.3,2.4,0.3,3.9v17.3h-3.7V9.1z"></path> <path class="st0" d="M193.9,8.7c6.4,0,9.6,3.4,9.6,3.4l-1.4,1.9c0,0-3.1-3-8.1-3c-6.2,0-10.7,4.8-10.7,11.1 c0,6.4,4.5,11.5,10.8,11.5c5.4,0,8.6-3.6,8.6-3.6l1.5,1.9c0,0-3.6,4.1-10.2,4.1c-7.9,0-13.5-6.2-13.5-13.9 C180.5,14.6,186.3,8.7,193.9,8.7z"></path> <path class="st0" d="M222.2,27.3h-10.7l-3,8.5h-2.8l9.8-26.6h2.8l9.8,26.6h-2.8L222.2,27.3z M216.9,11.9c0,0-0.6,2.2-1,3.4 l-3.6,9.7h9.2l-3.5-9.7C217.5,14.1,216.9,11.9,216.9,11.9L216.9,11.9z"></path> <path class="st0" d="M232.4,9.2h7.9c2.7,0,3.9,0.3,5,0.7c2.5,1.1,4,3.6,4,6.9c0,3.6-2,6.4-5,7.2V24c0,0,0.3,0.3,0.7,1.1l5.8,10.7 h-3l-6-11.2H235v11.2h-2.6V9.2z M241.4,22.2c3.2,0,5.3-2.1,5.3-5.4c0-2.2-0.9-3.8-2.4-4.7c-0.8-0.4-1.7-0.6-3.8-0.6H235v10.7H241.4 z"></path> </g> <path class="st0" d="M54.7,17.5c-4-7.7-33.6,15.5-35.6,7.7c-1-4,9.1-16.6,31.7-23.4c-34.7,6-48.4,36.4-37.7,41.7 C23.8,48.8,58.2,24.3,54.7,17.5z"></path> <path class="st1" d="M27.6,18.8C53.9,4.3,64.3,8.1,66.3,14.3c2.6,8-11.2,23.4-26.4,33.7c5.8-1.3,19.8-7.9,27.6-14.2 C91.8,14.4,64.3-9,27.6,18.8z"></path> </svg> 